<svg width="188" height="62" viewBox="0 0 188 62" fill="none" xmlns="http://www.w3.org/2000/svg">
<path opacity="0.3" fill-rule="evenodd" clip-rule="evenodd" d="M68.2186 0.843033C65.7794 1.29942 63.7748 1.67381 63.764 1.6751C63.7533 1.67639 63.7533 1.81129 63.764 1.97484L63.7836 2.27226L65.037 2.77458L66.2904 3.27684L66.3059 17.59L66.3214 31.9032L65.2292 32.5068L64.1372 33.1104V33.5229V33.9355H70.182H76.2267L76.2077 33.5056L76.1887 33.0757L75.1442 32.4992L74.0998 31.9227V23.3488V14.775L74.3718 14.5772C75.2756 13.9201 76.721 13.573 77.8631 13.7389C79.122 13.9218 79.8163 14.604 80.0985 15.9355C80.1536 16.1953 80.1737 18.3789 80.1737 24.0883V31.8864L79.0978 32.4754L78.0218 33.0645L78.0212 33.5L78.0205 33.9355H84.0624H90.1042L90.1038 33.5L90.1034 33.0645L89.0433 32.4856L87.9831 31.9067L87.9825 24.4534C87.982 16.8215 87.9524 15.6677 87.7313 14.6574C87.3449 12.8912 86.5209 11.7179 85.2131 11.0716C84.27 10.6055 83.7901 10.5031 82.3865 10.468C81.0214 10.4339 80.1957 10.5254 78.9927 10.8445C77.3764 11.273 75.943 11.9841 74.6498 12.9988L74.0355 13.4808V6.74039V0L73.3445 0.00664693C72.749 0.0124534 72.0411 0.127937 68.2186 0.843033ZM37.1163 4.72581C37.0844 4.9891 36.752 12.969 36.7547 13.4065L36.7561 13.6194L37.1201 13.6L37.484 13.5806L40.5027 9.56452L43.5213 5.54839H44.7344H45.9474V18.4438V31.3392L44.3244 32.18L42.7015 33.0209L42.6826 33.4782L42.6637 33.9355H50.2831H57.9025L57.9017 33.4677L57.9009 33L56.2627 32.1356L54.6245 31.2712V18.4098V5.54839H55.873H57.1216L60.0873 9.58064L63.0531 13.6129H63.4344C63.7868 13.6129 63.8158 13.6019 63.8167 13.4677C63.8187 13.1377 63.4904 5.34994 63.4562 4.91935L63.4191 4.45161H50.2844H37.1496L37.1163 4.72581ZM98.942 10.9057C96.8994 11.139 94.9822 11.8289 93.543 12.8484C92.8063 13.3703 91.7927 14.3864 91.2804 15.1168C90.4229 16.3392 89.756 17.9408 89.435 19.5484C89.1811 20.8198 89.1194 21.6576 89.1572 23.3139C89.2118 25.7054 89.5728 27.3903 90.3892 29.0645C91.8797 32.1212 94.4417 33.8703 98.2952 34.462C99.5467 34.6542 101.9 34.6699 102.895 34.4927C105.342 34.0569 107.412 32.9592 109.146 31.178L109.772 30.5342V30.0052V29.4761L108.985 29.9032C107.334 30.7983 106.323 31.1949 105.214 31.3818C103.554 31.6614 101.655 31.3508 100.282 30.5754C99.5813 30.18 98.4825 29.0754 98.0499 28.3319C97.3298 27.0946 96.852 25.453 96.6902 23.6613L96.6451 23.1613H103.604H110.563L110.522 21.7903C110.46 19.6883 110.24 18.263 109.743 16.7417C108.671 13.4612 106.541 11.6338 103.088 11.033C102.174 10.874 99.8448 10.8025 98.942 10.9057ZM101.061 12.092C102.001 12.645 102.706 14.4073 103.052 17.0645C103.193 18.1537 103.291 19.8121 103.269 20.7419L103.248 21.5806L100.42 21.751C98.8649 21.8446 97.3491 21.9379 97.0519 21.9582L96.5117 21.9952L96.5533 20.9492C96.7423 16.1945 98.1185 12.523 99.9345 11.9284C100.218 11.8357 100.758 11.9142 101.061 12.092ZM115.718 27.8721C113.066 28.3661 110.89 28.7712 110.881 28.7723C110.872 28.7734 110.865 28.9163 110.865 29.0901V29.4059L111.62 29.673C112.036 29.82 112.629 30.0302 112.938 30.1402L113.5 30.3403V33.9766C113.5 35.9766 113.487 37.6129 113.472 37.6129C113.456 37.6129 113.189 37.5277 112.877 37.4236C111.744 37.0445 111.383 36.9998 109.483 37.0023C107.603 37.0048 107.04 37.0661 105.852 37.3984C101.55 38.6005 98.9548 42.0459 98.3679 47.3329C98.2229 48.639 98.1879 49.9383 98.2648 51.1613C98.3831 53.0435 98.6027 54.2866 99.068 55.7097C100.112 58.9036 102.183 61.0172 104.986 61.7517C105.691 61.9365 105.862 61.9557 107.041 61.9833C108.033 62.0065 108.46 61.9901 108.913 61.9112C110.534 61.6292 112.098 60.8594 113.216 59.7932C113.469 59.5521 113.709 59.3548 113.749 59.3548C113.801 59.3548 113.822 59.7346 113.822 60.6774V62H114.45C114.876 62 116.473 61.8137 119.415 61.4207C121.8 61.1021 123.861 60.8237 123.993 60.8021L124.234 60.7628V60.3311V59.8993L122.9 59.4129L121.567 58.9264L121.551 43.0199L121.534 27.1134L121.204 27.0694C121.022 27.0452 120.798 27.0138 120.706 26.9995C120.614 26.9854 118.369 27.378 115.718 27.8721ZM130.083 27.0694C129.379 27.2552 128.802 27.5965 128.248 28.1552C127.46 28.9514 127.094 29.7519 127.023 30.8387C126.9 32.7236 128.024 34.381 129.873 35.0417C130.412 35.2345 131.633 35.2803 132.294 35.1325C134.35 34.6734 135.767 32.7298 135.543 30.6754C135.356 28.9643 134.065 27.497 132.367 27.0652C131.874 26.9396 130.566 26.9421 130.083 27.0694ZM15.6739 28.4964C15.4795 28.5079 14.9155 28.5624 14.4206 28.6175C9.79611 29.1322 5.99072 30.974 3.58099 33.8639C1.59683 36.2434 0.474138 39.1277 0.0827686 42.8513C-0.0520157 44.1336 -0.0159568 47.4868 0.145759 48.7097C0.859852 54.1095 3.16141 57.7718 7.19465 59.9263C9.90763 61.3754 13.665 62.0972 17.8647 61.9759C21.2859 61.8771 24.058 61.3845 27.5805 60.2497L27.8212 60.1721L27.8376 54.2979L27.854 48.4237L29.2841 47.6197L30.7142 46.8157V46.2466V45.6774H23.5476H16.3809L16.381 46.2097L16.3811 46.7419L17.8587 47.5806L19.3365 48.4194L19.3371 54.3361L19.3376 60.2529L18.9256 60.3806C18.2069 60.6034 17.7223 60.6694 16.8309 60.6657C15.4087 60.6599 14.4954 60.3248 13.5906 59.4767C11.7767 57.7764 10.7972 54.4689 10.3923 48.6774C10.282 47.0994 10.2809 41.9257 10.3908 40.7419C10.6661 37.7735 11.2128 35.4794 12.0682 33.7024C12.5606 32.6794 13.0067 32.0218 13.6439 31.3795C14.8299 30.1839 15.9693 29.7391 17.8494 29.7374C18.9165 29.7365 19.6414 29.8428 20.3954 30.1111L20.8993 30.2903L23.5743 34.4839L26.2493 38.6774L26.7142 38.6964L27.1791 38.7154L27.1728 37.6641C27.1693 37.0859 27.1332 35.1058 27.0925 33.2639L27.0184 29.9148L26.4721 29.7281C24.7023 29.1231 22.297 28.6981 19.6268 28.5185C18.7405 28.4588 16.5178 28.4464 15.6739 28.4964ZM178.514 36.753C176.009 37.0651 173.93 37.9045 172.049 39.3636C171.781 39.5717 171.528 39.7419 171.487 39.7419C171.432 39.7419 171.412 39.3596 171.412 38.3316V36.9212L171.074 36.8805C170.889 36.8581 170.636 36.8395 170.512 36.839C170.388 36.8386 168.154 37.2362 165.547 37.7225L160.807 38.6066L160.807 39.0936L160.807 39.5806L162.108 40.0368L163.41 40.4929V49.8738V59.2546L162.301 59.8632L161.192 60.4717V60.9778V61.4839H167.459H173.726V60.972V60.4601L172.635 59.8591L171.544 59.2581L171.542 50.2245L171.54 41.191L171.974 40.9223C172.213 40.7745 172.683 40.5593 173.019 40.4441C173.56 40.2585 173.727 40.2317 174.497 40.2077C175.799 40.1672 176.41 40.3608 176.997 41.0001C177.148 41.1648 177.339 41.4527 177.422 41.6399C177.748 42.3801 177.743 42.2286 177.743 51.0274V59.2483L176.634 59.8557L175.525 60.4633V60.9735V61.4839H181.763H188L187.981 60.959L187.963 60.4341L186.886 59.8161L185.809 59.1982V50.7579C185.809 45.1794 185.786 42.1071 185.741 41.697C185.413 38.7529 184.022 37.2161 181.31 36.8034C180.757 36.7192 179.035 36.6882 178.514 36.753ZM34.1529 37.9673L29.3966 38.8161V39.2244V39.6328L30.6971 40.1874L31.9975 40.7419L31.999 48.3548C32.0006 56.4986 32.0024 56.5494 32.3247 57.7419C32.6377 58.8999 33.3867 60.057 34.2536 60.7215C35.4031 61.603 36.7599 62 38.6221 62C39.7974 62 40.781 61.8422 41.8615 61.4803C43.2107 61.0284 44.2932 60.4161 45.4176 59.469C45.7448 59.1933 46.0413 58.9677 46.0764 58.9677C46.1167 58.9677 46.1402 59.5001 46.1402 60.4139V61.8599L46.636 61.9066C47.0553 61.9461 47.8561 61.8644 51.8262 61.3777L56.5206 60.8023L56.5377 60.4172L56.5548 60.0323L55.2843 59.5041L54.0139 58.976L53.9976 48.0773L53.9813 37.1786L53.5155 37.1388C53.1026 37.1035 52.5006 37.1956 48.2104 37.9491L43.371 38.7992L43.3898 39.2103L43.4085 39.6214L44.7086 40.1817L46.0086 40.7419L46.0102 49.2345L46.0116 57.7272L45.5968 58.1166C45.1325 58.5526 44.4723 58.9088 43.8263 59.0719C43.2439 59.2189 42.0762 59.1679 41.5674 58.9733C40.8576 58.7018 40.4277 58.2514 40.1765 57.5161C40.0745 57.2177 40.0649 56.445 40.049 47.2142L40.0317 37.2348L39.6634 37.1962C39.4607 37.175 39.2082 37.1488 39.1021 37.138C38.996 37.1272 36.7689 37.5004 34.1529 37.9673ZM65.6476 37.1395C62.942 37.3606 60.9951 37.7397 58.5292 38.5255L58.2881 38.6023V41.9171V45.2319L58.6866 45.2128L59.0852 45.1935L61.6722 41.6801C63.2484 39.5393 64.3163 38.1454 64.4054 38.1123C64.6056 38.0379 65.8951 38.0445 66.2926 38.1219C67.5823 38.373 68.3328 39.0905 68.7594 40.4801C69.0627 41.4679 69.1046 41.9459 69.1338 44.752C69.1602 47.2852 69.1561 47.4088 69.0436 47.4419C68.9787 47.4609 67.6674 47.7102 66.1297 47.9958C64.5919 48.2815 63.0132 48.6001 62.6214 48.7041C60.3235 49.3135 58.6706 50.2864 57.6939 51.6045C56.1133 53.7373 56.1847 57.5665 57.8461 59.7652C58.5466 60.6924 59.7399 61.4508 61.0198 61.7823C62.2319 62.0962 64.1408 62.064 65.4966 61.7068C66.2241 61.515 67.232 61.0286 67.8057 60.5922C68.213 60.2824 69.1506 59.3214 69.1506 59.2137C69.1506 59.0853 69.3536 59.1785 69.4228 59.3387C69.6087 59.7694 70.028 60.3498 70.3934 60.6824C71.3778 61.5786 73.0174 61.9975 75.2246 61.9168C76.6355 61.8652 78.0557 61.5347 79.0683 61.0223L79.4411 60.8335L79.4218 60.5018L79.4024 60.17L78.2967 59.882L77.1908 59.5941L77.1667 51.3615C77.1448 43.9079 77.1321 43.0772 77.0325 42.5806C76.7631 41.2383 76.2792 40.2614 75.4817 39.4504C74.1793 38.1259 72.1693 37.3997 69.1538 37.1643C68.3664 37.1028 66.2772 37.088 65.6476 37.1395ZM85.1872 37.8731C82.9247 38.2941 80.8061 38.687 80.479 38.7463L79.8845 38.8539L79.8848 39.2173L79.8852 39.5806L81.1703 39.9627L82.4555 40.3448L82.4548 49.8014L82.4542 59.2581L81.3782 59.8469L80.3023 60.4357L80.2836 60.9598L80.2649 61.4839H86.5048H92.7447L92.726 60.9614L92.7073 60.4388L91.6468 59.8462L90.5863 59.2536L90.5699 52.3375L90.5535 45.4214L90.7948 45.3182C91.3556 45.0786 92.3759 44.7694 93.1251 44.6119C94.1585 44.3948 96.2861 44.3186 97.1905 44.4664L97.7529 44.5583V40.9616V37.3648L97.5119 37.2792C97.171 37.1581 95.8445 37.1773 95.2957 37.3113C93.8473 37.6649 92.714 38.6185 91.7893 40.2614C91.3578 41.0279 90.7576 42.7421 90.5503 43.7997C90.5008 44.0524 90.4416 44.1935 90.3851 44.1935C90.3116 44.1935 90.297 43.6128 90.297 40.6864V37.1793L89.9596 37.1386C89.7739 37.1162 89.5498 37.1001 89.4614 37.1028C89.3731 37.1055 87.4496 37.4521 85.1872 37.8731ZM129.858 37.9378C127.313 38.3945 125.136 38.7853 125.022 38.8063L124.813 38.8446V39.2539V39.6632L126.114 40.1778L127.416 40.6924L127.431 49.9752L127.446 59.2581L126.322 59.8689L125.198 60.4797V60.9818V61.4839H131.465H137.732V60.9714V60.4589L136.64 59.8585L135.548 59.2581L135.547 48.2186L135.547 37.1793L135.209 37.1386C135.023 37.1162 134.785 37.1001 134.679 37.1027C134.573 37.1054 132.403 37.4811 129.858 37.9378ZM146.409 37.1385C146.285 37.1501 145.822 37.1915 145.381 37.2305C143.703 37.3788 141.519 37.821 139.773 38.366L139.017 38.6017V41.9138V45.2258L139.419 45.2219L139.821 45.2181L142.416 41.6785C144.393 38.9814 145.05 38.129 145.176 38.0974C145.497 38.0165 146.818 38.0587 147.212 38.1626C148.668 38.5461 149.366 39.4737 149.731 41.5124C149.812 41.9687 149.841 42.6785 149.863 44.752C149.889 47.2852 149.885 47.4088 149.773 47.4419C149.708 47.461 148.454 47.6981 146.987 47.9688C145.52 48.2394 144.031 48.5326 143.677 48.6202C141.508 49.1581 139.97 49.9414 138.912 51.0481C137.831 52.1785 137.368 53.378 137.301 55.2258C137.218 57.5188 137.961 59.4301 139.4 60.6265C139.952 61.0856 140.945 61.5739 141.749 61.7823C142.539 61.9867 143.977 62.0574 144.976 61.9408C146.989 61.706 148.668 60.799 149.794 59.3387C149.869 59.2411 149.961 59.1613 149.998 59.1613C150.035 59.1613 150.174 59.3718 150.307 59.629C150.656 60.3051 151.315 60.9455 152.011 61.2828C153.011 61.7683 154.328 61.9773 155.986 61.9139C157.417 61.8594 158.763 61.5442 159.797 61.0218L160.17 60.8335L160.151 60.5018L160.132 60.17L159.026 59.882L157.92 59.5939L157.896 51.3292C157.874 43.1977 157.871 43.0546 157.737 42.4516C157.482 41.2978 157.126 40.5106 156.533 39.7894C155.281 38.2658 153.122 37.4132 149.883 37.1634C149.095 37.1026 146.956 37.0873 146.409 37.1385ZM112.155 38.3621C112.544 38.4778 113.047 38.72 113.32 38.923L113.5 39.0565V48.5572V58.0579L113.291 58.2152C112.706 58.6554 112.016 58.8651 111.154 58.8639C108.092 58.8596 106.751 55.932 106.752 49.2581C106.753 46.1611 107.033 43.7844 107.62 41.8932C108.234 39.9189 109.085 38.7796 110.249 38.3757C110.68 38.2263 111.675 38.2191 112.155 38.3621ZM69.1349 53.4005L69.1185 58.1559L68.7971 58.4003C68.3306 58.755 67.9476 58.8672 67.2504 58.8534C65.8514 58.8257 65.0351 58.2123 64.613 56.8712C64.3709 56.1021 64.2665 55.2568 64.2663 54.0645C64.2656 50.8272 65.0108 49.3454 66.8781 48.8706C67.2696 48.7711 68.163 48.6711 68.8135 48.6541L69.1514 48.6452L69.1349 53.4005ZM149.864 53.4005L149.848 58.1559L149.526 58.4003C149.06 58.755 148.677 58.8672 147.98 58.8534C147.147 58.837 146.642 58.6674 146.19 58.2521C145.348 57.48 144.995 56.224 144.995 54C144.995 50.8376 145.757 49.341 147.607 48.8706C147.999 48.7711 148.892 48.6711 149.543 48.6541L149.881 48.6452L149.864 53.4005Z" fill="#8487A3"/>
</svg>
