<svg width="157" height="64" viewBox="0 0 157 64" fill="none" xmlns="http://www.w3.org/2000/svg">
<g opacity="0.3">
<path fill-rule="evenodd" clip-rule="evenodd" d="M21.0504 0.950026C20.602 1.13098 20.4567 3.62105 20.4567 11.1236V21.0578H10.8155C3.9499 21.0578 1.01054 21.2216 0.604471 21.6277C-0.20149 22.4336 -0.20149 41.5288 0.604471 42.3348C1.37434 43.1046 6.6556 43.0609 10.4831 42.2535C20.4719 40.1458 27.2197 36.9182 26.3539 34.6622C26.1891 34.2324 24.6347 33.2346 22.8993 32.4443C17.2428 29.8682 16.4302 29.3244 16.2701 28.0065C16.1471 26.992 16.5024 26.5333 18.2853 25.4024C21.4835 23.374 28.778 21.1257 35.9609 19.9545L42.2993 18.9206L42.3012 10.2696C42.3036 2.20195 42.2419 1.58596 41.3851 1.12718C40.4637 0.634196 22.2272 0.475093 21.0504 0.950026ZM37.5543 21.613C32.8852 22.6227 28.9414 23.9962 28.6683 24.7081C28.2503 25.7971 29.6889 26.6881 36.1585 29.3463C44.7452 32.875 47.0358 35.2877 44.6626 38.305C42.6432 40.8724 33.8294 45.5334 23.9 49.2854L20.4567 50.5867V56.6683C20.4567 61.7762 20.5768 62.7963 21.208 63.0385C22.516 63.5405 40.4039 63.3601 41.3851 62.8353C42.2471 62.3736 42.3036 61.7477 42.3036 52.6337V42.9242L52.1585 42.7954L62.0133 42.6672V31.9812V21.2952L50.8524 21.223C44.7139 21.1836 38.7297 21.3589 37.5543 21.613Z" fill="#8487A3"/>
<path d="M88.9528 36.1313C87.2174 36.1313 85.6017 35.852 84.1057 35.2935C82.6296 34.715 81.3131 33.8872 80.1561 32.8101L82.3104 30.1471C84.365 32.0022 86.619 32.9297 89.0725 32.9297C90.2893 32.9297 91.2368 32.6704 91.915 32.1518C92.5932 31.6332 92.9323 30.9849 92.9323 30.2069C92.9323 29.6484 92.7628 29.1996 92.4237 28.8605C92.1045 28.5015 91.6158 28.2022 90.9575 27.9629C90.3192 27.7036 89.3917 27.4343 88.1749 27.155C86.5791 26.776 85.2726 26.3671 84.2553 25.9283C83.238 25.4695 82.4301 24.8611 81.8317 24.1031C81.2532 23.3252 80.964 22.3178 80.964 21.0811C80.964 19.9042 81.2732 18.847 81.8915 17.9095C82.5298 16.952 83.4075 16.204 84.5246 15.6654C85.6616 15.1269 86.9382 14.8576 88.3544 14.8576C89.9103 14.8576 91.3266 15.1069 92.6032 15.6056C93.8798 16.0843 95.0567 16.7925 96.1338 17.73L94.0992 20.4827C93.2016 19.7047 92.2441 19.1063 91.2268 18.6874C90.2295 18.2685 89.2221 18.0591 88.2048 18.0591C87.1875 18.0591 86.3497 18.3284 85.6915 18.867C85.0532 19.3856 84.734 20.0139 84.734 20.752C84.734 21.5499 85.0931 22.1582 85.8112 22.5771C86.5293 22.9761 87.766 23.375 89.5213 23.774C91.8951 24.3125 93.6803 25.0306 94.8772 25.9283C96.074 26.8059 96.6724 28.1125 96.6724 29.8479C96.6724 31.0846 96.3632 32.1817 95.7449 33.1392C95.1464 34.0767 94.2588 34.8147 93.0819 35.3533C91.925 35.8719 90.5486 36.1313 88.9528 36.1313ZM107.235 34.9344C106.796 35.3134 106.277 35.6126 105.679 35.8321C105.1 36.0515 104.512 36.1612 103.913 36.1612C102.637 36.1612 101.59 35.7423 100.772 34.9045C99.9739 34.0667 99.575 32.9996 99.575 31.703V23.3551H97.3309V20.3331H99.575V16.0843H103.106V20.3331H106.606V23.3551H103.106V31.2542C103.106 31.7728 103.255 32.2017 103.554 32.5408C103.854 32.8799 104.213 33.0494 104.632 33.0494C104.931 33.0494 105.22 32.9996 105.499 32.8998C105.798 32.7801 106.028 32.6405 106.187 32.4809L107.235 34.9344ZM113.392 23.2653C113.891 22.248 114.629 21.4501 115.606 20.8717C116.584 20.2732 117.691 19.974 118.927 19.974V23.0858C117.272 23.0858 115.935 23.5346 114.918 24.4322C113.901 25.3299 113.392 26.5167 113.392 27.9928V35.8021H109.742V20.3331H113.392V23.2653ZM128.062 36.1612C126.566 36.1612 125.179 35.8021 123.903 35.084C122.626 34.346 121.609 33.3586 120.851 32.1219C120.113 30.8652 119.744 29.5088 119.744 28.0526C119.744 26.5965 120.113 25.2501 120.851 24.0133C121.609 22.7766 122.626 21.7992 123.903 21.0811C125.179 20.3431 126.566 19.974 128.062 19.974C129.558 19.974 130.934 20.3431 132.191 21.0811C133.467 21.7992 134.475 22.7766 135.213 24.0133C135.951 25.2501 136.32 26.5965 136.32 28.0526C136.32 29.5088 135.951 30.8652 135.213 32.1219C134.475 33.3586 133.467 34.346 132.191 35.084C130.934 35.8021 129.558 36.1612 128.062 36.1612ZM128.062 33.0494C128.899 33.0494 129.677 32.83 130.395 32.3912C131.114 31.9324 131.682 31.324 132.101 30.566C132.52 29.7881 132.729 28.9503 132.729 28.0526C132.729 27.155 132.52 26.3272 132.101 25.5692C131.682 24.8112 131.114 24.2128 130.395 23.774C129.677 23.3152 128.899 23.0858 128.062 23.0858C127.204 23.0858 126.416 23.3152 125.698 23.774C124.98 24.2128 124.401 24.8112 123.963 25.5692C123.544 26.3272 123.334 27.155 123.334 28.0526C123.334 28.9503 123.544 29.7881 123.963 30.566C124.401 31.324 124.98 31.9324 125.698 32.3912C126.416 32.83 127.204 33.0494 128.062 33.0494ZM138.993 14.8875H142.644V35.8021H138.993V14.8875ZM146.298 14.8875H149.948V35.8021H146.298V14.8875Z" fill="#8487A3"/>
<path d="M93.4409 43.346H94.6776V50.1979H93.4409V47.2756H90.02V50.1979H88.7733V43.346H90.02V46.1386H93.4409V43.346ZM104.03 44.483H100.12V46.1386H103.661V47.2756H100.12V49.0609H104.03V50.1979H98.8735V43.346H104.03V44.483ZM113.345 50.1979L112.807 48.9013H109.535L108.997 50.1979H107.61L110.483 43.346H111.859L114.731 50.1979H113.345ZM109.964 47.884H112.378L111.171 44.9916L109.964 47.884ZM119.756 49.0609H123.276V50.1979H118.509V43.346H119.756V49.0609ZM128.935 44.483H126.74V43.346H132.366V44.483H130.181V50.1979H128.935V44.483ZM140.864 43.346H142.101V50.1979H140.864V47.2756H137.443V50.1979H136.197V43.346H137.443V46.1386H140.864V43.346Z" fill="#8487A3"/>
</g>
</svg>
