<svg width="60" height="60" viewBox="0 0 60 60" fill="none" xmlns="http://www.w3.org/2000/svg">
<rect opacity="0.5" x="0.5" y="0.5" width="59" height="59" rx="13.5" stroke="#090F47"/>
<path fillRule="evenodd" clipRule="evenodd" d="M23.1919 35.4436C22.9364 35.6991 22.9364 36.1135 23.1919 36.369C23.4474 36.6245 23.8618 36.6245 24.1173 36.369L31.0002 29.4861L37.8832 36.3691C38.1387 36.6246 38.553 36.6246 38.8086 36.3691C39.0641 36.1135 39.0641 35.6992 38.8086 35.4437L31.9256 28.5607L38.8082 21.6781C39.0637 21.4226 39.0637 21.0082 38.8082 20.7527C38.5527 20.4971 38.1383 20.4971 37.8828 20.7527L31.0002 27.6353L24.1177 20.7528C23.8621 20.4972 23.4478 20.4972 23.1923 20.7528C22.9367 21.0083 22.9367 21.4226 23.1923 21.6782L30.0748 28.5607L23.1919 35.4436Z" fill="#090F47"/>
</svg>
