<svg width="28" height="30" viewBox="0 0 28 30" fill="none" xmlns="http://www.w3.org/2000/svg">
<path fillRule="evenodd" clipRule="evenodd" d="M14.115 27.7455C13.2232 27.7455 12.5073 27.3686 12.0565 26.9172C11.674 26.5341 11.3994 26.1211 11.2576 25.5708C11.0668 24.8301 11.1991 24.424 11.3254 23.6621C11.6297 21.8259 12.337 19.8754 13.2812 18.3136C13.4971 17.9564 14.0395 17.1423 14.3419 16.8263C14.4218 16.7428 14.4387 16.7063 14.5102 16.6258C14.569 16.5595 14.6183 16.5258 14.6765 16.4566C15.015 16.054 15.5983 15.5418 16.0258 15.2234L16.6628 14.7867C16.7444 14.7345 16.7984 14.691 16.8846 14.6395L17.6059 14.2534C17.6918 14.2142 17.7609 14.1831 17.8567 14.1349C19.2006 13.457 21.2308 13.1196 22.7522 13.1196C23.2627 13.1196 23.8298 13.4068 24.198 13.688C25.8827 14.9749 25.6984 17.6083 23.6601 18.609C23.1243 18.872 22.4443 18.9112 21.8111 18.9097C21.5241 18.909 21.372 18.9452 21.1058 18.9436C20.0058 18.9374 19.1971 19.0858 18.3443 19.7747L17.8066 20.3102C17.28 20.9539 17.082 21.5276 16.9845 22.372C16.9672 22.5214 17.0067 22.5348 17.0073 22.6916C17.008 22.8532 16.9756 22.8569 16.9705 23.0253L16.9716 24.8337C16.9717 25.6657 16.7488 26.2774 16.1399 26.8837C15.6322 27.3893 14.872 27.7455 14.115 27.7455H14.115ZM27.1548 15.8954V16.1611C27.1359 16.8114 26.9771 17.4578 26.6619 18.0842C26.2408 18.9212 25.4704 19.7488 24.6235 20.1708C24.2156 20.3741 23.8808 20.4943 23.3663 20.5923C21.9477 20.8626 20.2103 20.1701 19.2177 21.4143C18.8904 21.8246 18.8195 22.165 18.8201 22.6917C18.822 24.1597 18.9693 25.8315 18.2474 27.0747C15.7302 31.4101 9.34277 29.6868 9.34277 24.7333C9.34277 24.4583 9.37855 24.2266 9.42419 23.9777C9.75494 22.1733 9.95922 21.2124 10.6725 19.4307C11.163 18.2056 12.214 16.9831 13.0347 15.9595C13.0997 15.8785 13.1617 15.8327 13.2333 15.7558C14.6841 14.1963 16.3027 12.9139 18.2732 12.0729C19.7281 11.4519 20.9942 11.3124 22.7187 11.3124C24.3626 11.3124 26.1214 12.5609 26.7377 14.0372C26.993 14.6489 27.1369 15.273 27.1549 15.8954L27.1548 15.8954Z" fill="#6B5DD3"/>
<path fillRule="evenodd" clipRule="evenodd" d="M4.90671 18.3744H4.67149C2.47933 18.3744 1.06614 15.9419 2.23699 14.009C2.50479 13.5668 2.76475 13.3276 3.18583 13.0461C3.39856 12.9039 3.56234 12.8349 3.82644 12.7469C4.74125 12.4427 7.35148 12.618 8.46923 12.618C10.396 12.618 12.323 12.618 14.2498 12.618L13.6718 12.9795C12.5979 13.6699 11.6689 14.3408 10.7127 15.187L10.2119 15.6251C9.9279 15.8513 9.52913 16.2496 9.18909 16.5146C8.65299 16.9325 8.49607 17.1 7.80768 17.4817C7.12083 17.8625 5.94507 18.3744 4.90667 18.3744H4.90671ZM0 15.4293C0 16.2075 0.149125 16.8781 0.425262 17.449C0.587328 17.7842 0.843597 18.2489 1.10063 18.5168C1.69229 19.1333 1.91849 19.3798 2.77773 19.7917C4.38161 20.5609 6.41733 20.1384 7.90958 19.4236C9.9421 18.4501 12.3371 15.776 14.2307 14.1536C17.3369 11.7082 19.4384 11.0773 21.0766 10.7987C17.895 10.7987 14.4064 10.8106 11.2251 10.8106C10.132 10.8106 9.15072 10.7772 8.06574 10.7772C7.01288 10.7772 5.95983 10.7785 4.90671 10.777C3.79851 10.7757 3.082 11.0239 2.36282 11.4232C0.996376 12.1821 3.80616e-05 13.764 3.80616e-05 15.4293H0Z" fill="#6B5DD3"/>
<path fillRule="evenodd" clipRule="evenodd" d="M10.8213 5.0203C10.8213 4.12194 11.1846 3.38588 11.7657 2.78131L12.1602 2.43786C12.3129 2.32555 12.4959 2.22666 12.6691 2.14141C13.5018 1.73163 14.4615 1.77003 15.2964 2.10328C15.6148 2.23038 16.0003 2.49373 16.224 2.71903C16.7462 3.24499 17.2067 3.99682 17.2067 4.81949C17.2067 5.46996 17.1967 5.81455 16.8931 6.41491C16.6842 6.82784 16.5659 6.97945 16.2573 7.2878C15.3286 8.21558 13.8198 8.47761 12.6695 7.89874C12.3523 7.73913 12.2133 7.6585 11.9535 7.4404C11.8625 7.3641 11.8201 7.34629 11.7363 7.25505C11.1775 6.64669 10.8212 5.86799 10.8212 5.0203H10.8213ZM9.00642 4.71908C9.00642 5.73434 9.04475 6.30446 9.51055 7.22924C10.1952 8.58863 11.3648 9.54791 12.8705 9.90754C14.2604 10.2395 15.7128 9.93639 16.8442 9.17755C17.131 8.98515 17.1336 8.96214 17.3512 8.7788C18.3549 7.93335 19.0551 6.52385 19.0551 5.18761C19.0551 4.15135 18.9529 3.76894 18.5752 2.88763C18.4182 2.52133 18.1163 2.06113 17.8533 1.76571C16.6264 0.387251 14.8124 -0.302224 12.931 0.126472C12.6338 0.194206 12.2685 0.303029 12.0193 0.423374C10.8969 0.965213 10.1024 1.6324 9.52166 2.78904C9.28286 3.26466 9.00635 4.02817 9.00635 4.71908H9.00642Z" fill="#6B5DD3"/>
</svg>
